PathFileType	4	(X/Y/Z)	AB13\squats_1.trc
DataRate	CameraRate	NumFrames	NumMarkers	Units	OrigDataRate	OrigDataStartFrame	OrigNumFrames
200.000000	200.000000	4	35	mm	200.000000	39	316
Frame#	Time	C7			LSHO			STRN			LASI			RASI			LPSI			RPSI			LGTR			RGTR			LTHC			LTHL			LTHR			LKNE			LMKNE			LSHC			LSHL			LSHR			LANK			LMANK			LMT1			LMT5			LCAL			RTHC			RTHL			RTHR			RKNE			RSHC			RSHL			RSHR			RANK			RMANK			RMT1			RMT5			RCAL			RMKNE			
		X1	Y1	Z1	X2	Y2	Z2	X3	Y3	Z3	X4	Y4	Z4	X5	Y5	Z5	X6	Y6	Z6	X7	Y7	Z7	X8	Y8	Z8	X9	Y9	Z9	X10	Y10	Z10	X11	Y11	Z11	X12	Y12	Z12	X13	Y13	Z13	X14	Y14	Z14	X15	Y15	Z15	X16	Y16	Z16	X17	Y17	Z17	X18	Y18	Z18	X19	Y19	Z19	X20	Y20	Z20	X21	Y21	Z21	X22	Y22	Z22	X23	Y23	Z23	X24	Y24	Z24	X25	Y25	Z25	X26	Y26	Z26	X27	Y27	Z27	X28	Y28	Z28	X29	Y29	Z29	X30	Y30	Z30	X31	Y31	Z31	X32	Y32	Z32	X33	Y33	Z33	X34	Y34	Z34	X35	Y35	Z35	

40	32.885	-3482.847555230476	1371.77390456643	2488.232473938836	-3555.358186973952	1329.211750601916	2629.561785124664	-3596.18838572627	1241.881330119686	2472.613080324524	-3535.961812983586	868.5813832724039	2593.507200347112	-3528.349660266088	842.1701382548802	2327.29849584361	-3320.213137822044	950.8910557293866	2516.713246045157	-3326.678352642206	965.0523958697953	2442.109682227299	-3432.856147827437	854.2803817464124	2667.284872544202	-3414.876751279993	830.1186705325016	2265.648910714652	-3507.871363502943	677.7159392676633	2681.949363415704	-3464.844302013332	528.6239799659488	2589.60444787436	-3591.166223061822	677.5580737661844	2617.19236822915	-3590.402570100271	456.369704866536	2681.544893149271	-3597.840600144311	445.3790922603303	2566.255074879807	-3466.517236308884	237.9767879515578	2702.657558923547	-3543.544749800783	245.0355849842521	2662.603474109848	-3415.935642679357	214.8403149024486	2633.602274095773	-3414.586795581802	98.50656812701395	2693.899439721954	-3447.022151088204	104.060310261119	2612.916085826282	-3557.391880295676	56.27061661995963	2653.065423595232	-3516.508166902181	50.38636903847583	2733.525849211303	-3354.752848769217	77.34713491923964	2647.521569157304	-3455.399164056176	518.192915601423	2338.826024428144	-3475.579155815348	677.9685122589309	2251.035876513227	-3585.809338327178	663.2112996554725	2319.186501373019	-3569.476489656531	458.445298125179	2251.785521096362	-3407.973715675713	195.9891240028183	2320.735483831849	-3458.933920638461	236.0176279687053	2247.437458307482	-3540.53210467122	254.9532102452062	2272.934216427364	-3409.059706062109	104.1674643703554	2262.135460175992	-3448.782194448972	101.9605358199773	2338.991026857304	-3555.033341729129	54.57422156813242	2285.402847105394	-3486.097057800162	44.95432697831219	2210.103270079246	-3346.920148294353	68.86034008372475	2311.52088020677	-3595.925662213958	449.7634985856316	2367.951565693657	
41	32.89	-3483.870522734029	1368.516544783596	2488.071908880931	-3556.355745076068	1325.73885507326	2629.3700858089	-3596.842546219488	1238.25896227547	2472.473218583367	-3534.962737703288	865.2164144309851	2593.402135826507	-3527.397814643964	839.2503709918423	2326.876652914498	-3319.38744047745	948.319265834373	2516.485854535966	-3325.916022905256	962.5527432103728	2441.888374476508	-3431.524173062543	851.3602373381634	2667.109814945111	-3413.809549108351	827.9071999236188	2265.183442317433	-3507.260076838612	675.8493221544634	2682.185917233946	-3466.382363663435	526.5019047436958	2589.707272887769	-3590.805332320801	676.6792764742206	2617.676850162833	-3592.155640203758	455.5370061218913	2682.257657860176	-3600.107163794273	444.4816821608856	2566.926690861073	-3467.344559533218	237.7131011601377	2702.793105154226	-3544.557669060719	244.4129388528492	2662.946966943931	-3416.854580516698	214.9117968877158	2633.507545334224	-3414.760538112391	98.61265745590411	2693.755136834501	-3447.359122598702	104.1293487499972	2612.871848021492	-3557.537406916417	56.27313476609118	2653.181754784179	-3516.499211662198	50.34789767429347	2733.587247427676	-3354.909038935868	77.50448314052085	2647.288768606162	-3456.521591700853	516.2877901817266	2338.061400335259	-3475.143063350347	676.24080687332	2250.612790083226	-3585.555461422959	662.4447240976261	2318.671088404214	-3570.970585937964	457.5433153136076	2251.017518075297	-3408.640170005556	195.9761424399437	2320.579806620999	-3459.652134945749	235.6781506675715	2247.129719352257	-3541.39366682642	254.2700926583707	2272.493157301915	-3409.18377907723	104.1259834571277	2262.092996382522	-3448.936189537802	101.9385202252855	2338.920969766236	-3555.062354402528	54.56292562587727	2285.271083497771	-3486.071396027428	44.87831494289993	2210.051077760736	-3346.979712216415	68.90506953609888	2311.548121245044	-3597.530590861474	448.9668996817086	2367.2064397931	
42	32.895	-3484.909246776765	1365.19270404188	2487.908049720636	-3557.377300534806	1322.205971577533	2629.173591944865	-3597.504228838644	1234.572187285662	2472.325912750096	-3533.963224546043	861.7892137674849	2593.306337359571	-3526.4325013084	836.2736327469406	2326.47341087053	-3318.562440498142	945.690862087128	2516.284834403191	-3325.1520822733	959.9961572903813	2441.690225067072	-3430.203926388243	848.3917286489873	2666.961387709936	-3412.733910148861	825.6582125806	2264.739486521881	-3506.637484594756	673.9460866671195	2682.417130743998	-3467.89458202131	524.3732412372304	2589.826860856778	-3590.411224263463	675.7609681705809	2618.144825075798	-3593.89021261525	454.6928530205675	2682.960881812184	-3602.332925956276	443.5708940891852	2567.593623643824	-3468.169276054142	237.4435737434218	2702.92986402945	-3545.562399141481	243.7850766330985	2663.283597751274	-3417.767154504716	214.9764226779562	2633.419822609239	-3414.934298601763	98.71770059196524	2693.611289017629	-3447.698446905571	104.1890620695451	2612.828273091618	-3557.685113244122	56.27366096350597	2653.298154715867	-3516.490193528984	50.30514198770525	2733.644970476997	-3355.070011166744	77.65954657363363	2647.053366224412	-3457.635085125922	514.3723979020552	2337.285741238612	-3474.703230847761	674.4967048089201	2250.192307029773	-3585.283511769926	661.6570820242874	2318.168446729694	-3572.456004952042	456.6375707701648	2250.250057993797	-3409.309039931992	195.9626406928354	2320.424542511082	-3460.367758712521	235.3405099387236	2246.821379210272	-3542.248060616971	253.588470081938	2272.051176801734	-3409.309632972516	104.0877304247039	2262.051378800205	-3449.092822836011	101.9168829105828	2338.851645587088	-3555.093132186515	54.5522646791359	2285.135749948715	-3486.048647416135	44.80301675845138	2209.999098582558	-3347.04262172325	68.95227448186168	2311.57795413252	-3599.125126066574	448.1618519163968	2366.457870459069	
43	32.9	-3485.964030590544	1361.802232146384	2487.741876366274	-3558.423409222001	1318.611949750126	2628.973112782154	-3598.173509148266	1230.819906144252	2472.171465773934	-3532.961625519717	858.3033751419238	2593.219904469455	-3525.452498324978	833.2380366564547	2326.091779461686	-3317.737217105097	943.0064697041954	2516.108465680271	-3324.385313618513	957.381376010137	2441.51330700865	-3428.89662316537	845.3828730277781	2666.841572018228	-3411.65094741464	823.368363677917	2264.317627003051	-3506.006175418735	672.0101123343322	2682.642240975016	-3469.37702335514	522.2398165145584	2589.965915907502	-3589.984471509827	674.8038815608227	2618.593044693076	-3595.604777534134	453.8380330762481	2683.654120831744	-3604.513672112717	442.6474913998656	2568.255039213448	-3468.989703420629	237.1679790726999	2703.067930252881	-3546.557077754427	243.1521909301484	2663.613627789715	-3418.671769598513	215.0333611236128	2633.339499333744	-3415.106938690404	98.82016155897047	2693.469125424914	-3448.038702071242	104.2390210819379	2612.785799406239	-3557.834195553312	56.27234307621251	2653.414664259542	-3516.480986329881	50.25769185900594	2733.699118514907	-3355.23498865627	77.81096621378637	2646.816811286896	-3458.739895383665	512.4456238569755	2336.49988068372	-3474.260727704239	672.7353811190653	2249.774804605652	-3584.994304783697	660.8466352054376	2317.679676041068	-3573.93284617076	455.728000085398	2249.48227124695	-3409.980153592164	195.9487955206249	2320.270266735754	-3461.080550670869	235.004445541625	2246.512917354308	-3543.095241551825	252.9083470799114	2271.608018101024	-3409.437410912731	104.0526135811348	2262.010807570453	-3449.252433146012	101.8958673609609	2338.783646955433	-3555.125833597865	54.54208714218328	2284.997438693817	-3486.028672652933	44.7288298572209	2209.947450109459	-3347.109003931761	69.0019361479202	2311.611035945391	-3600.71020194947	447.3480088536124	2365.705522293387	
